<svg width="88" height="92" viewBox="0 0 88 92" fill="none" xmlns="http://www.w3.org/2000/svg">
<path d="M42.5104 61.9896C47.8576 61.9896 52.4028 60.2708 56.1458 56.8333C59.8889 53.3958 61.7604 49.2326 61.7604 44.3437C61.7604 39.9896 60.3663 36.3038 57.5781 33.2865C54.7899 30.2691 51.4097 28.7604 47.4375 28.7604C43.8472 28.7604 40.8108 29.9062 38.3281 32.1979C35.8455 34.4896 34.6042 37.316 34.6042 40.6771C34.6042 42.1285 34.8906 43.5417 35.4635 44.9167C36.0365 46.2917 36.8576 47.5521 37.9271 48.6979L44.4583 42.1667C44.2292 42.0139 44.0573 41.8229 43.9427 41.5938C43.8281 41.3646 43.7708 41.0972 43.7708 40.7917C43.7708 39.9514 44.1146 39.283 44.8021 38.7865C45.4896 38.2899 46.3681 38.0417 47.4375 38.0417C48.9653 38.0417 50.2257 38.6719 51.2187 39.9323C52.2118 41.1927 52.7083 42.7014 52.7083 44.4583C52.7083 46.8264 51.7344 48.8316 49.7865 50.474C47.8385 52.1163 45.4514 52.9375 42.625 52.9375C39.0347 52.9375 35.9983 51.4861 33.5156 48.5833C31.033 45.6806 29.7917 42.1285 29.7917 37.9271C29.7917 35.7118 30.2118 33.592 31.0521 31.5677C31.8924 29.5434 33.0764 27.7674 34.6042 26.2396L28.0729 19.7083C25.6285 22.0764 23.7569 24.8264 22.4583 27.9583C21.1597 31.0903 20.5104 34.375 20.5104 37.8125C20.5104 44.5347 22.6493 50.2448 26.9271 54.9427C31.2049 59.6406 36.3993 61.9896 42.5104 61.9896ZM13.75 91.6667V71.9583C9.39583 67.9861 6.01562 63.3455 3.60937 58.0365C1.20312 52.7274 0 47.1319 0 41.25C0 29.7917 4.01042 20.0521 12.0312 12.0312C20.0521 4.01042 29.7917 0 41.25 0C50.7986 0 59.2587 2.80729 66.6302 8.42188C74.0017 14.0365 78.7951 21.3507 81.0104 30.3646L86.9688 53.8542C87.3507 55.3056 87.0833 56.6233 86.1667 57.8073C85.25 58.9913 84.0278 59.5833 82.5 59.5833H73.3333V73.3333C73.3333 75.8542 72.4358 78.0121 70.6406 79.8073C68.8455 81.6024 66.6875 82.5 64.1667 82.5H55V91.6667H45.8333V73.3333H64.1667V50.4167H76.5417L72.1875 32.6562C70.4305 25.7049 66.6875 20.0521 60.9583 15.6979C55.2292 11.3437 48.6597 9.16667 41.25 9.16667C32.3889 9.16667 24.8264 12.2604 18.5625 18.4479C12.2986 24.6354 9.16667 32.1597 9.16667 41.0208C9.16667 45.6042 10.1024 49.9583 11.974 54.0833C13.8455 58.2083 16.5 61.875 19.9375 65.0833L22.9167 67.8333V91.6667H13.75Z" fill="black"/>
</svg>
