<svg width="83" height="96" viewBox="0 0 83 96" fill="none" xmlns="http://www.w3.org/2000/svg">
<path d="M18.3333 95.3333C23.0694 95.3333 26.9462 94.1493 29.9635 91.7812C32.9809 89.4132 35.2917 85.9375 36.8958 81.3542C38.1944 77.5347 39.4358 74.8611 40.6198 73.3333C41.8038 71.8056 44.5347 69.3611 48.8125 66C53.5486 62.1806 57.2917 57.8646 60.0417 53.0521C62.7917 48.2396 64.1667 42.4722 64.1667 35.75C64.1667 26.6597 61.092 19.0399 54.9427 12.8906C48.7934 6.74132 41.1736 3.66667 32.0833 3.66667C22.9931 3.66667 15.3733 6.74132 9.22396 12.8906C3.07465 19.0399 0 26.6597 0 35.75H9.16667C9.16667 29.2569 11.3628 23.8142 15.7552 19.4219C20.1476 15.0295 25.5903 12.8333 32.0833 12.8333C38.5764 12.8333 44.0191 15.0295 48.4115 19.4219C52.8038 23.8142 55 29.2569 55 35.75C55 40.9444 53.9688 45.375 51.9062 49.0417C49.8438 52.7083 46.9028 55.9931 43.0833 58.8958C39.1111 61.7986 36.0174 64.625 33.8021 67.375C31.5868 70.125 29.9444 73.1042 28.875 76.3125C27.8056 79.6736 26.526 82.1562 25.0365 83.7604C23.5469 85.3646 21.3125 86.1667 18.3333 86.1667C15.8125 86.1667 13.6545 85.2691 11.8594 83.474C10.0642 81.6788 9.16667 79.5208 9.16667 77H0C0 82.0417 1.79514 86.3576 5.38542 89.9479C8.97569 93.5382 13.2917 95.3333 18.3333 95.3333ZM67.8333 71.2708C72.3403 66.6875 75.9115 61.3594 78.5469 55.2865C81.1823 49.2135 82.5 42.7014 82.5 35.75C82.5 28.7222 81.1823 22.1528 78.5469 16.0417C75.9115 9.93056 72.3403 4.58333 67.8333 0L61.1875 6.41667C65.0069 10.2361 67.9861 14.6476 70.125 19.651C72.2639 24.6545 73.3333 30.0208 73.3333 35.75C73.3333 41.4028 72.2639 46.7118 70.125 51.6771C67.9861 56.6424 65.0069 61.0347 61.1875 64.8542L67.8333 71.2708ZM32.0833 47.2083C35.2917 47.2083 38.0035 46.0816 40.2188 43.8281C42.434 41.5747 43.5417 38.8819 43.5417 35.75C43.5417 32.5417 42.434 29.8299 40.2188 27.6146C38.0035 25.3993 35.2917 24.2917 32.0833 24.2917C28.875 24.2917 26.1632 25.3993 23.9479 27.6146C21.7326 29.8299 20.625 32.5417 20.625 35.75C20.625 38.8819 21.7326 41.5747 23.9479 43.8281C26.1632 46.0816 28.875 47.2083 32.0833 47.2083Z" fill="black"/>
</svg>
