<svg width="101" height="91" viewBox="0 0 101 91" fill="none" xmlns="http://www.w3.org/2000/svg">
<path d="M69.2083 48.125L62.5625 41.4792C63.25 37.8889 62.2188 34.5278 59.4688 31.3958C56.7188 28.2639 53.1667 27.0417 48.8125 27.7292L42.1667 21.0833C43.4653 20.4722 44.783 20.0139 46.1198 19.7083C47.4566 19.4028 48.8889 19.25 50.4167 19.25C56.1458 19.25 61.0156 21.2552 65.026 25.2656C69.0365 29.276 71.0417 34.1458 71.0417 39.875C71.0417 41.4028 70.8889 42.8351 70.5833 44.1719C70.2778 45.5087 69.8194 46.8264 69.2083 48.125ZM83.875 62.5625L77.2292 56.1458C80.1319 53.9306 82.7101 51.5052 84.9635 48.8698C87.217 46.2344 89.1458 43.2361 90.75 39.875C86.9306 32.1597 81.4497 26.0295 74.3073 21.4844C67.1649 16.9392 59.2014 14.6667 50.4167 14.6667C48.2014 14.6667 46.0243 14.8194 43.8854 15.125C41.7465 15.4306 39.6458 15.8889 37.5833 16.5L30.4792 9.39583C33.6111 8.09722 36.8194 7.12326 40.1042 6.47396C43.3889 5.82465 46.8264 5.5 50.4167 5.5C61.9514 5.5 72.2257 8.68924 81.2396 15.0677C90.2535 21.4462 96.7847 29.7153 100.833 39.875C99.0764 44.3819 96.7656 48.5642 93.901 52.4219C91.0365 56.2795 87.6944 59.6597 83.875 62.5625ZM86.1667 90.75L66.9167 71.7292C64.2431 72.5695 61.5504 73.1997 58.8385 73.6198C56.1267 74.0399 53.3194 74.25 50.4167 74.25C38.8819 74.25 28.6076 71.0608 19.5938 64.6823C10.5799 58.3038 4.04861 50.0347 0 39.875C1.60417 35.8264 3.62847 32.0642 6.07292 28.5885C8.51736 25.1129 11.3056 22 14.4375 19.25L1.83333 6.41667L8.25 0L92.5833 84.3333L86.1667 90.75ZM20.8542 25.6667C18.6389 27.6528 16.6146 29.8299 14.7812 32.1979C12.9479 34.566 11.3819 37.125 10.0833 39.875C13.9028 47.5903 19.3837 53.7205 26.526 58.2656C33.6684 62.8108 41.6319 65.0833 50.4167 65.0833C51.9444 65.0833 53.434 64.9879 54.8854 64.7969C56.3368 64.6059 57.8264 64.3958 59.3542 64.1667L55.2292 59.8125C54.3889 60.0417 53.5868 60.2135 52.8229 60.3281C52.059 60.4427 51.2569 60.5 50.4167 60.5C44.6875 60.5 39.8177 58.4948 35.8073 54.4844C31.7969 50.474 29.7917 45.6042 29.7917 39.875C29.7917 39.0347 29.849 38.2326 29.9635 37.4688C30.0781 36.7049 30.25 35.9028 30.4792 35.0625L20.8542 25.6667Z" fill="black"/>
</svg>
