<svg width="98" height="103" viewBox="0 0 98 103" fill="none" xmlns="http://www.w3.org/2000/svg">
<path d="M93.1562 78.6042L83.9896 69.4375V18.3333C83.9896 17.0347 84.4288 15.9462 85.3073 15.0677C86.1858 14.1892 87.2743 13.75 88.5729 13.75C89.8715 13.75 90.9601 14.1892 91.8385 15.0677C92.717 15.9462 93.1562 17.0347 93.1562 18.3333V78.6042ZM38.1562 23.6042L28.9896 14.4375V13.75C28.9896 12.4514 29.4288 11.3628 30.3073 10.4844C31.1858 9.6059 32.2743 9.16667 33.5729 9.16667C34.8715 9.16667 35.9601 9.6059 36.8385 10.4844C37.717 11.3628 38.1562 12.4514 38.1562 13.75V23.6042ZM56.4896 41.9375L47.3229 32.7708V4.58333C47.3229 3.28472 47.7622 2.19618 48.6406 1.31771C49.5191 0.439236 50.6076 0 51.9062 0C53.2049 0 54.2934 0.439236 55.1719 1.31771C56.0504 2.19618 56.4896 3.28472 56.4896 4.58333V41.9375ZM74.8229 51.2188H65.6562V9.16667C65.6562 7.86806 66.0955 6.77951 66.974 5.90104C67.8524 5.02257 68.941 4.58333 70.2396 4.58333C71.5382 4.58333 72.6267 5.02257 73.5052 5.90104C74.3837 6.77951 74.8229 7.86806 74.8229 9.16667V51.2188ZM79.0625 90.5208L38.1562 49.6146V75.2812L21.1979 63.3646L39.1875 89.6042C39.5694 90.2153 40.1042 90.7118 40.7917 91.0938C41.4792 91.4757 42.2049 91.6667 42.9688 91.6667H74.8229C75.5868 91.6667 76.3316 91.5712 77.0573 91.3802C77.783 91.1892 78.4514 90.9028 79.0625 90.5208ZM42.9688 100.833C40.6771 100.833 38.5382 100.318 36.5521 99.2865C34.566 98.2552 32.9236 96.7847 31.625 94.875L2.40625 52.1354L5.15625 49.5C6.60764 48.0486 8.32639 47.2083 10.3125 46.9792C12.2986 46.75 14.0938 47.2083 15.6979 48.3542L28.9896 57.6354V40.4479L0 11.4583L6.53125 4.92708L97.2812 95.6771L90.75 102.208L85.7083 97.1667C84.1806 98.3125 82.5 99.2101 80.6667 99.8594C78.8333 100.509 76.8854 100.833 74.8229 100.833H42.9688Z" fill="black"/>
</svg>
